<?xml version="1.0" encoding="UTF-8" standalone="no"?>
<svg
   id="bencher_wordmark"
   version="1.1"
   viewBox="0 0 600 113"
   sodipodi:docname="bencher_wordmark.svg"
   inkscape:version="1.3 (0e150ed, 2023-07-21)"
   xmlns:inkscape="http://www.inkscape.org/namespaces/inkscape"
   xmlns:sodipodi="http://sodipodi.sourceforge.net/DTD/sodipodi-0.dtd"
   xmlns="http://www.w3.org/2000/svg"
   xmlns:svg="http://www.w3.org/2000/svg">
  <defs
     id="defs1" />
  <sodipodi:namedview
     id="namedview1"
     pagecolor="#ffffff"
     bordercolor="#000000"
     borderopacity="0.25"
     inkscape:showpageshadow="2"
     inkscape:pageopacity="0.0"
     inkscape:pagecheckerboard="0"
     inkscape:deskcolor="#d1d1d1"
     inkscape:zoom="256"
     inkscape:cx="0.09765625"
     inkscape:cy="80.701172"
     inkscape:window-width="1672"
     inkscape:window-height="1278"
     inkscape:window-x="672"
     inkscape:window-y="25"
     inkscape:window-maximized="0"
     inkscape:current-layer="bencher_wordmark" />
  <rect
     style="fill:#ffffff;stroke-width:8.58435"
     id="rect1"
     width="600"
     height="113"
     x="0.00028267503"
     y="0"
     inkscape:label="background" />
  <path
     id="outline"
     fill="#000000"
     fill-opacity="1"
     d="m 87.04,54.87 c 5.413333,4.24 9.113333,9.476667 11.1,15.71 1.853333,5.786667 2.15333,11.436667 0.9,16.95 -1.366667,6.013333 -4.61,11.023333 -9.73,15.03 -4.386667,3.44 -9.736667,5.77333 -16.05,7 -9.833333,1.91333 -19.61,1.67 -29.33,-0.73 -4.053333,-1 -7.823333,-2.63667 -11.31,-4.91 C 27.826667,100.78667 24.42,96.77 22.4,91.87 20.553333,87.363333 19.95,82.366667 20.59,76.88 21.583333,68.446667 25.623333,61.153333 32.71,55 c 0.602958,-0.526584 0.745946,-1.405539 0.34,-2.09 -4.04,-6.76 -7.213333,-14.043333 -9.52,-21.85 -1.38,-4.673333 -1.906667,-8.61 -1.58,-11.81 0.433333,-4.353333 1.97,-8.166667 4.61,-11.44 3.16,-3.9133333 7.056667,-5.7966667 11.69,-5.65 3.92,0.12 7.6,1.59 11.04,4.41 4.6,3.78 7.336667,7.42904 8.21,13.935707 0.49,3.643333 0.657432,5.952996 0.865387,10.739823 0.150482,3.522425 0.111596,7.280575 0.07402,10.602405 -0.04773,1.205311 -0.01116,2.062877 0.193426,2.394139 0.734393,1.130752 2.423841,1.054593 2.837174,-0.09207 0.153333,-0.433333 0.206667,-1.17 0.16,-2.21 -0.18,-3.6 -0.183333,-7.2 -0.01,-10.8 0.24,-5.093333 0.56,-8.676667 0.96,-10.75 1.48,-7.68 5.723333,-13.29 12.73,-16.83 3.4,-1.7133333 6.866667,-2.0133333 10.4,-0.9 2.98,0.9466667 5.603333,2.8733333 7.87,5.78 3.333333,4.28 4.866667,9.083333 4.6,14.41 -0.186667,3.64 -1.616667,8.863333 -4.29,15.67 -1.973333,5.046667 -4.36,9.94 -7.16,14.68 -0.326572,0.559373 -0.194376,1.271522 0.31,1.67 z m -20.85,-5 C 62.283333,49.383333 58.143333,49.37 53.77,49.83 53.447244,49.8578 53.180693,49.581558 53.22,49.26 54.473333,39.493333 54.316667,29.99 52.75,20.75 52.323333,18.23 51.266667,15.79 49.58,13.43 48.033333,11.256667 46.086667,9.56 43.74,8.34 37.9,5.2933333 33.136667,6.4366667 29.45,11.77 c -1.406667,2.033333 -2.343333,4.356667 -2.81,6.97 -0.5,2.84 -0.443333,5.406667 0.17,7.7 2.666667,9.866667 6.923333,19.276667 12.77,28.23 0.173388,0.265249 0.09631,0.618913 -0.17,0.78 -5.8,3.666667 -9.92,8.423333 -12.36,14.27 -2.48,5.953333 -2.926667,11.89 -1.34,17.81 2.006667,7.5 7.123333,12.72 15.35,15.66 11.58,4.13333 23.636667,4.3 36.17,0.5 7.873333,-2.38667 13.18,-6.823333 15.92,-13.31 2.513333,-5.953333 2.663333,-12.243333 0.45,-18.87 -2.193333,-6.54 -6.52,-11.856667 -12.98,-15.95 -0.308104,-0.194766 -0.398356,-0.600899 -0.2,-0.9 5.073333,-7.793333 8.956667,-15.926667 11.65,-24.4 0.96,-3.04 1.486667,-5.63 1.58,-7.77 0.126667,-3.086667 -0.36,-5.73 -1.46,-7.93 -3.346667,-6.6533333 -7.873333,-9.07 -13.58,-7.25 -3.566667,1.1333333 -6.43,3.433333 -8.59,6.9 -2.013333,3.226667 -3.186667,6.906667 -3.52,11.04 -0.68,8.426667 -0.633333,16.486667 0.14,24.18 0.02818,0.257891 -0.192807,0.473963 -0.45,0.44 z" />
  <path
     id="face"
     d="m 37.625,6.6796875 c -0.314528,0.00599 -0.625523,0.029637 -0.931641,0.068359 -0.306116,0.038724 -0.608544,0.092604 -0.90625,0.1640625 -0.297704,0.071458 -0.591565,0.1594803 -0.880859,0.2636718 -0.289294,0.1041917 -0.574586,0.2244025 -0.855469,0.3613282 -0.280882,0.1369257 -0.555653,0.2912777 -0.828125,0.4609375 -0.27247,0.1696597 -0.542581,0.3542468 -0.80664,0.5566406 -0.264061,0.2023938 -0.523649,0.4211222 -0.779297,0.65625 -0.255649,0.2351278 -0.506669,0.4879974 -0.753907,0.7558594 -0.247236,0.2678625 -0.489689,0.5509675 -0.728515,0.8515625 -0.238826,0.300597 -0.474664,0.617843 -0.705078,0.951172 -0.351663,0.508329 -0.673884,1.035501 -0.966797,1.580078 -0.292914,0.544579 -0.554898,1.106673 -0.789063,1.6875 -0.234163,0.580828 -0.439819,1.179798 -0.615234,1.796875 -0.175415,0.617078 -0.320835,1.252924 -0.4375,1.90625 -0.124998,0.709994 -0.216069,1.402299 -0.271484,2.078125 -0.05542,0.675827 -0.07667,1.334902 -0.0625,1.976563 0.01417,0.64166 0.06469,1.265553 0.148437,1.873047 0.08375,0.607494 0.202137,1.198157 0.355469,1.771484 0.33333,1.233321 0.691202,2.460637 1.074219,3.679688 0.383017,1.21905 0.789952,2.429986 1.222656,3.634765 0.432704,1.20478 0.890655,2.403241 1.373047,3.59375 0.48239,1.190509 0.989406,2.374543 1.521484,3.550781 0.532078,1.17624 1.09011,2.343893 1.671875,3.50586 0.581765,1.161967 1.186908,2.317146 1.818359,3.464844 0.631453,1.147696 1.289564,2.288448 1.970704,3.421875 0.681138,1.133425 1.386361,2.25975 2.117187,3.378906 0.04143,0.06285 0.06999,0.133262 0.08398,0.207031 0.0136,0.07397 0.01226,0.149706 -0.0039,0.222656 -0.01615,0.07267 -0.04671,0.141089 -0.08984,0.201172 -0.04283,0.05992 -0.09729,0.110398 -0.160156,0.148438 -0.724992,0.458328 -1.423209,0.935344 -2.095703,1.427734 -0.672494,0.492391 -1.319459,1.000891 -1.939453,1.527344 -0.619994,0.526453 -1.213756,1.070344 -1.78125,1.630859 -0.567494,0.560515 -1.108051,1.137845 -1.623047,1.732422 -0.514994,0.594577 -1.004301,1.205346 -1.466797,1.833984 -0.462494,0.62864 -0.898598,1.274799 -1.308594,1.9375 -0.409994,0.662703 -0.794847,1.342299 -1.152343,2.039063 -0.357496,0.696764 -0.68719,1.411752 -0.992188,2.142578 -0.309996,0.744159 -0.589481,1.486831 -0.835937,2.230469 -0.246456,0.743638 -0.461616,1.48735 -0.644532,2.230469 -0.182914,0.743117 -0.33375,1.485919 -0.453125,2.228515 -0.119373,0.742598 -0.205886,1.484486 -0.261718,2.226563 -0.05583,0.742075 -0.07997,1.485007 -0.07227,2.226562 0.0077,0.741556 0.04594,1.481623 0.117188,2.222656 0.07125,0.741035 0.175757,1.482143 0.310546,2.222657 0.134791,0.740513 0.301669,1.480711 0.5,2.220703 0.125417,0.468746 0.262398,0.929927 0.41211,1.380859 0.149712,0.450933 0.310366,0.893051 0.484375,1.326172 0.174008,0.433121 0.360288,0.856177 0.558594,1.271484 0.198305,0.415309 0.41021,0.821254 0.632812,1.21875 0.222602,0.397498 0.456226,0.786333 0.703125,1.166016 0.246899,0.379684 0.506148,0.75141 0.777344,1.113281 0.271195,0.361873 0.554118,0.714535 0.849609,1.058594 0.295493,0.344059 0.60404,0.679613 0.923828,1.005859 0.319789,0.326248 0.652009,0.642738 0.996094,0.951172 0.344085,0.308435 0.699978,0.607815 1.068359,0.898438 0.368383,0.290621 0.747947,0.572893 1.140625,0.845703 0.39268,0.272815 0.797869,0.536015 1.214844,0.791015 0.416975,0.255 0.845838,0.5011 1.28711,0.73828 0.44127,0.23719 0.895759,0.46617 1.361328,0.68555 0.465567,0.21937 0.943729,0.4293 1.433593,0.63086 0.489866,0.20156 0.991698,0.39437 1.50586,0.57812 0.723742,0.25834 1.448315,0.50118 2.175781,0.72852 0.727466,0.22734 1.458263,0.44036 2.189453,0.63672 0.731192,0.19635 1.464305,0.37565 2.199219,0.54101 0.734914,0.16537 1.470346,0.3168 2.208984,0.45118 0.73864,0.13436 1.480294,0.25208 2.222657,0.35546 0.742362,0.10339 1.486335,0.19128 2.232421,0.26368 0.746088,0.0724 1.494331,0.13046 2.244141,0.17187 0.74981,0.0414 1.500372,0.0658 2.253906,0.0762 0.753535,0.0104 1.510321,0.007 2.267578,-0.0137 0.757259,-0.0206 1.516362,-0.0578 2.277344,-0.10937 0.760982,-0.0516 1.522403,-0.11862 2.28711,-0.20118 0.764705,-0.0825 1.532351,-0.17943 2.300781,-0.29296 0.76843,-0.11355 1.538393,-0.24415 2.310547,-0.38868 0.772153,-0.14453 1.546388,-0.30299 2.322265,-0.47851 0.775878,-0.17552 1.55243,-0.36771 2.332032,-0.57422 0.779601,-0.20651 1.562377,-0.42852 2.345703,-0.66602 0.492078,-0.14916 0.973286,-0.30552 1.445312,-0.4707 0.472027,-0.16518 0.934744,-0.33833 1.386719,-0.51953 0.451975,-0.1812 0.894249,-0.37115 1.326172,-0.56836 0.431923,-0.19721 0.853754,-0.40202 1.265625,-0.61523 0.411871,-0.21323 0.813259,-0.43482 1.205078,-0.66407 0.391819,-0.22924 0.772764,-0.46569 1.144531,-0.71093 0.371767,-0.245268 0.734223,-0.498497 1.085938,-0.759771 0.351715,-0.261272 0.693727,-0.531305 1.02539,-0.808593 0.331664,-0.27729 0.653233,-0.562165 0.964844,-0.855469 0.311612,-0.293305 0.612737,-0.594978 0.904297,-0.904297 0.29156,-0.309319 0.574195,-0.625837 0.845703,-0.951172 0.271508,-0.325335 0.531748,-0.658649 0.783203,-1 0.251456,-0.34135 0.493206,-0.691462 0.72461,-1.048828 0.231403,-0.357366 0.45271,-0.722322 0.664062,-1.095703 0.211352,-0.373382 0.412216,-0.755134 0.603516,-1.144531 0.1913,-0.389397 0.373672,-0.785994 0.544922,-1.191407 0.314163,-0.744159 0.591721,-1.495319 0.832031,-2.25 0.24031,-0.754679 0.442918,-1.514095 0.609375,-2.279297 0.166456,-0.7652 0.296068,-1.534825 0.388672,-2.310546 0.0926,-0.775722 0.14922,-1.557508 0.167968,-2.34375 0.01875,-0.786242 4.2e-4,-1.578238 -0.05469,-2.375 -0.0551,-0.796763 -0.148386,-1.598967 -0.277344,-2.40625 -0.128956,-0.807284 -0.295236,-1.619696 -0.498047,-2.4375 -0.20281,-0.817805 -0.442085,-1.640426 -0.71875,-2.46875 -0.274163,-0.817492 -0.581044,-1.615269 -0.921875,-2.394532 -0.340829,-0.779263 -0.715551,-1.540215 -1.123047,-2.28125 -0.407494,-0.741034 -0.848103,-1.46321 -1.322265,-2.166015 -0.474162,-0.702806 -0.980656,-1.386204 -1.521485,-2.050782 -0.540827,-0.664576 -1.115162,-1.309199 -1.722656,-1.935546 -0.607494,-0.626348 -1.249668,-1.234147 -1.923828,-1.822266 -0.67416,-0.588119 -1.380267,-1.157141 -2.121094,-1.707031 -0.740825,-0.549891 -1.516726,-1.080136 -2.324218,-1.591797 -0.07387,-0.04694 -0.136388,-0.107649 -0.185547,-0.177735 -0.04916,-0.07008 -0.08496,-0.149546 -0.103516,-0.234375 -0.01871,-0.08453 -0.01919,-0.170876 -0.0039,-0.253906 0.01528,-0.08303 0.04633,-0.162748 0.09375,-0.234375 0.63416,-0.974157 1.250683,-1.954671 1.847656,-2.939453 0.596973,-0.984782 1.174589,-1.973343 1.734375,-2.96875 0.559786,-0.995407 1.100448,-1.995921 1.623047,-3.001953 0.522599,-1.006032 1.026307,-2.0185 1.511719,-3.035156 0.485411,-1.016657 0.952166,-2.039125 1.40039,-3.066407 0.448225,-1.02728 0.878025,-2.059749 1.289063,-3.097656 0.411037,-1.037906 0.803884,-2.080375 1.177734,-3.128906 0.373851,-1.048531 0.729744,-2.102954 1.066406,-3.162109 0.239998,-0.759994 0.452841,-1.491569 0.638672,-2.195313 0.185832,-0.703742 0.344898,-1.37985 0.476563,-2.027344 0.131665,-0.647492 0.235,-1.266176 0.3125,-1.857422 0.0775,-0.591244 0.12901,-1.154457 0.152344,-1.689453 0.03167,-0.771658 0.02547,-1.516178 -0.01953,-2.232422 -0.0225,-0.358121 -0.05599,-0.708467 -0.09766,-1.052734 -0.04167,-0.344267 -0.09151,-0.681305 -0.152344,-1.011719 -0.06083,-0.330413 -0.132892,-0.654143 -0.21289,-0.970703 -0.08,-0.316559 -0.168413,-0.626982 -0.267578,-0.929687 -0.09917,-0.302706 -0.207841,-0.597867 -0.326172,-0.886719 -0.118333,-0.288852 -0.247268,-0.570705 -0.384766,-0.845703 -0.209164,-0.415829 -0.422242,-0.816488 -0.640625,-1.199219 -0.218383,-0.38273 -0.44232,-0.748024 -0.669922,-1.097656 -0.227602,-0.349632 -0.458492,-0.683467 -0.695312,-1 -0.236814,-0.316533 -0.47857,-0.615003 -0.72461,-0.898438 C 89.212946,10.0818 88.962289,9.8147892 88.707031,9.5644531 88.451774,9.3141171 88.192211,9.0805186 87.927734,8.8632813 87.663259,8.6460438 87.392835,8.4439044 87.119141,8.2597656 86.845445,8.0756268 86.568071,7.9088526 86.285156,7.7578125 86.002243,7.6067724 85.714008,7.4714571 85.421875,7.3535156 85.129742,7.2355741 84.832601,7.1356242 84.53125,7.0507812 84.229899,6.9659384 83.925805,6.8974475 83.615234,6.8457031 83.304665,6.7939589 82.987757,6.75888 82.667969,6.7402344 82.34818,6.7215885 82.02432,6.7179659 81.695312,6.7324219 c -0.329006,0.014453 -0.661773,0.046198 -1,0.09375 -0.338225,0.047552 -0.681852,0.110756 -1.029296,0.1914062 -0.347446,0.080651 -0.699978,0.1792198 -1.056641,0.2929688 -0.445829,0.1416652 -0.880837,0.3003924 -1.304688,0.4785156 -0.423849,0.1781232 -0.83641,0.3752625 -1.238281,0.5898438 -0.401871,0.2145811 -0.791983,0.4481796 -1.171875,0.6992187 -0.379892,0.2510391 -0.749508,0.5191436 -1.107422,0.8066406 -0.357913,0.2874974 -0.705081,0.5940144 -1.041015,0.9179684 -0.335935,0.323956 -0.660654,0.664978 -0.97461,1.025391 -0.313954,0.360413 -0.616226,0.739848 -0.908203,1.136719 -0.291975,0.396871 -0.573752,0.812764 -0.84375,1.246094 -0.251663,0.403328 -0.489429,0.812972 -0.714844,1.230468 -0.225413,0.417496 -0.437554,0.841775 -0.636718,1.273438 -0.199165,0.431662 -0.385679,0.870577 -0.558594,1.316406 -0.172915,0.445829 -0.33185,0.899379 -0.478516,1.359375 -0.146665,0.459996 -0.281928,0.926228 -0.402343,1.400391 -0.120416,0.474161 -0.226147,0.95503 -0.320313,1.443359 -0.09417,0.488329 -0.176224,0.983834 -0.244141,1.486328 C 66.596147,24.223196 66.541666,24.733339 66.5,25.25 c -0.085,1.053323 -0.158412,2.100713 -0.220703,3.142578 -0.06229,1.041865 -0.112761,2.078969 -0.152344,3.109375 -0.03958,1.030407 -0.06906,2.055271 -0.08594,3.074219 -0.01687,1.018948 -0.02146,2.031572 -0.01563,3.039062 0.0058,1.00749 0.02224,2.009828 0.05078,3.00586 0.02854,0.996031 0.06789,1.986129 0.11914,2.970703 0.05125,0.984573 0.115496,1.962432 0.189454,2.935547 0.07396,0.973115 0.159193,1.940687 0.255859,2.902343 0.0086,0.08108 -0.0077,0.162855 -0.04687,0.234375 -0.03852,0.07127 -0.09778,0.129162 -0.169922,0.166016 -0.07237,0.03646 -0.154097,0.05008 -0.234375,0.03906 -0.976657,-0.121666 -1.966833,-0.212891 -2.972656,-0.275391 -1.005823,-0.0625 -2.02751,-0.09628 -3.0625,-0.09961 -1.03499,-0.0033 -2.084281,0.02425 -3.148438,0.08008 -1.064155,0.05583 -2.143005,0.140861 -3.236328,0.255859 -0.07648,0.0065 -0.152555,-0.0049 -0.222656,-0.03125 -0.0701,-0.02637 -0.134237,-0.06777 -0.1875,-0.123047 -0.05326,-0.05535 -0.09349,-0.120301 -0.117188,-0.191406 -0.0237,-0.07111 -0.03088,-0.14837 -0.02148,-0.224609 0.156665,-1.220822 0.28974,-2.437799 0.402344,-3.650391 0.112602,-1.212592 0.204897,-2.420637 0.273437,-3.625 0.06854,-1.204363 0.114193,-2.405428 0.138672,-3.601563 0.02448,-1.196133 0.02741,-2.388267 0.0078,-3.576171 -0.01958,-1.187905 -0.06135,-2.371106 -0.125,-3.550782 C 53.854306,30.076182 53.767851,28.89996 53.660143,27.728514 53.552449,26.557068 53.423254,25.389781 53.271484,24.226562 53.119732,23.063347 52.945831,21.904988 52.75,20.75 52.643335,20.120006 52.497915,19.494994 52.3125,18.875 52.127085,18.255006 51.900882,17.639291 51.636719,17.029297 51.372554,16.419303 51.069476,15.814838 50.726562,15.214844 50.38365,14.61485 50.001741,14.019682 49.580078,13.429688 49.193415,12.886359 48.782366,12.372416 48.345703,11.888672 47.909041,11.404926 47.4476,10.951506 46.960937,10.527344 46.474276,10.103181 45.962443,9.7083297 45.425781,9.34375 44.88912,8.9791703 44.326895,8.6448406 43.740234,8.3398438 43.375238,8.1494289 43.014788,7.9760401 42.658203,7.8183594 42.301618,7.6606787 41.947784,7.5194779 41.599609,7.3945312 41.251436,7.2695847 40.908122,7.160572 40.568359,7.0683594 40.228597,6.9761467 39.893851,6.8993224 39.5625,6.8398437 39.231149,6.7803652 38.903018,6.7376821 38.580078,6.7109375 38.257139,6.6841929 37.939528,6.6736979 37.625,6.6796875 Z"
     style="fill:#ffffff" />
  <path
     id="mouth"
     fill="#bfb5bf"
     fill-opacity="1"
     d="m 65,95.56 q 2.08,0 3.57,-1.6 0.21,-0.24 0.41,-0.35 1.2,-0.71 0.21,0.83 -2.88,4.47 -8.66,1.9 a 1.22,1.23 46.3 0 0 -0.95,-0.02 q -6.21,2.54 -8.93,-2.26 -0.42,-0.74 0.05,-0.71 a 1.04,0.54 59.1 0 1 0.6,0.37 q 3.6,4.14 7.61,-0.87 a 1.32,1.32 0 0 1 2.22,0.26 q 0.46,0.98 1.65,1.76 1.06,0.69 2.22,0.69 z" />
  <ellipse
     id="nose"
     fill="#fc7300"
     fill-opacity="1"
     cx="60.445126"
     cy="88.674728"
     rx="3.53"
     ry="1.97"
     transform="rotate(0.3)" />
  <path
     id="ears"
     fill="#fc7300"
     fill-opacity="1"
     d="m 42.15,15.69 c 0.733333,0.553333 1.346667,1.216667 1.84,1.99 1.933333,3.046667 3.033333,6.736667 3.3,11.07 0.366667,6.166667 0.33,12.673333 -0.11,19.52 -0.186667,2.98 -1.19,3.286667 -3.01,0.92 -4.42,-5.753333 -7.956667,-12.92 -10.61,-21.5 -0.84,-2.726667 -0.876667,-5.523333 -0.11,-8.39 0.58,-2.153333 1.433333,-3.646667 2.56,-4.48 1.666667,-1.24 3.713333,-0.95 6.14,0.87 z m 35.7,0 c -0.733333,0.553333 -1.346667,1.216667 -1.84,1.99 -1.933333,3.046667 -3.033333,6.736667 -3.3,11.07 -0.366667,6.166667 -0.33,12.673333 0.11,19.52 0.186667,2.98 1.19,3.286667 3.01,0.92 4.42,-5.753333 7.956667,-12.92 10.61,-21.5 0.84,-2.726667 0.876667,-5.523333 0.11,-8.39 -0.58,-2.153333 -1.433333,-3.646667 -2.56,-4.48 -1.666667,-1.24 -3.713333,-0.95 -6.14,0.87 z" />
  <path
     id="cheeks"
     style="fill:#fdb07e;fill-opacity:1"
     d="m 42.084458,84.719032 c 0,3.872338 -3.278533,7.011488 -7.322808,7.011488 -4.044275,0 -7.322808,-3.13915 -7.322808,-7.011488 0,-3.872337 3.278533,-7.011487 7.322808,-7.011487 4.044275,0 7.322808,3.13915 7.322808,7.011487 z m 35.831084,0 c 0,3.872338 3.278533,7.011488 7.322808,7.011488 4.044275,0 7.322808,-3.13915 7.322808,-7.011488 0,-3.872337 -3.278533,-7.011487 -7.322808,-7.011487 -4.044275,0 -7.322808,3.13915 -7.322808,7.011487 z" />
  <path
     id="eyes"
     style="fill:#000000;fill-opacity:1"
     d="m 47.451446,76.183212 c 0,3.131826 -2.549593,5.670672 -5.694675,5.670672 -3.145082,0 -5.694674,-2.538846 -5.694674,-5.670672 0,-3.131825 2.549592,-5.670671 5.694674,-5.670671 3.145082,0 5.694675,2.538846 5.694675,5.670671 z m 25.097108,0 c 0,3.131826 2.549593,5.670672 5.694675,5.670672 3.145082,0 5.694674,-2.538846 5.694674,-5.670672 0,-3.131825 -2.549592,-5.670671 -5.694674,-5.670671 -3.145082,0 -5.694675,2.538846 -5.694675,5.670671 z" />
  <path
     id="bencher"
     style="font-size:112.596px;fill:#000000;stroke-width:9.38295"
     d="m 417.35352,12 v 85.544924 h 10.33593 V 51.69336 c 2.82223,-2.162487 5.77277,-3.939244 8.85157,-5.332032 3.07879,-1.392787 6.02933,-2.089843 8.85156,-2.089843 2.74892,0 4.98437,0.384598 6.70703,1.154297 1.72266,0.733046 3.04268,1.868806 3.95899,3.408203 0.87965,1.392787 1.48458,3.335768 1.81445,5.828125 0.32987,2.455704 0.49414,5.095741 0.49414,7.917968 v 34.964846 h 10.33594 V 57.685547 c 0,-7.513723 -1.74069,-13.266617 -5.22266,-17.261719 -3.48197,-3.995101 -8.53976,-5.99414 -15.17383,-5.99414 -3.62858,0 -7.16601,0.751161 -10.61133,2.253906 -3.44531,1.502745 -6.78045,3.59196 -10.00586,6.267578 V 12 Z M 144,15.683594 v 81.86133 h 29.0293 c 5.68111,0 10.3543,-0.5128 14.01953,-1.53906 3.70188,-1.026269 7.09113,-2.748921 10.16992,-5.167973 2.60232,-2.015877 4.6735,-4.58182 6.21289,-7.697266 1.5394,-3.115446 2.3086,-6.706984 2.3086,-10.77539 0,-5.681108 -1.5925,-10.372336 -4.78125,-14.074219 -3.18875,-3.738535 -7.55144,-6.176279 -13.08594,-7.3125 v -0.439453 c 3.29871,-1.649354 5.93874,-3.830698 7.91797,-6.542969 1.97922,-2.748923 2.96875,-6.066027 2.96875,-9.951172 0,-3.445317 -0.67902,-6.395858 -2.03516,-8.851562 -1.35613,-2.492357 -3.53748,-4.525514 -6.54297,-6.101563 -2.71227,-1.392788 -5.55264,-2.310172 -8.52148,-2.75 -2.96884,-0.439828 -7.43974,-0.658203 -13.41406,-0.658203 z m 10.88672,9.291016 h 12.97461 c 3.62858,0 6.67125,0.128199 9.12695,0.384765 2.45571,0.219914 4.54492,0.824841 6.26758,1.814453 1.46609,0.843003 2.52776,1.942693 3.1875,3.298828 0.65974,1.356136 0.99024,3.022729 0.99024,5.001954 0,2.3824 -0.36657,4.453579 -1.09961,6.21289 -0.6964,1.722659 -1.90625,3.132853 -3.62891,4.232422 -1.72266,1.099569 -3.59154,1.832696 -5.60742,2.199219 -2.01588,0.329871 -4.72806,0.496094 -8.13672,0.496094 h -14.07422 z m 90.98828,9.455078 c -8.94316,0 -16.16231,2.950541 -21.66015,8.851562 -5.4612,5.901022 -8.19336,13.873284 -8.19336,23.916016 0,10.152689 2.86036,17.996751 8.57812,23.53125 5.71776,5.497848 13.67003,8.246098 23.85938,8.246098 3.9951,0 7.80696,-0.49477 11.43554,-1.48438 3.62858,-0.98961 7.18405,-2.217501 10.66602,-3.683593 V 82.53711 h -0.54883 c -1.79596,1.612701 -4.8206,3.261259 -9.07227,4.947265 -4.21501,1.649354 -8.41148,2.47461 -12.58984,2.47461 -3.1521,0 -6.04853,-0.440657 -8.6875,-1.320313 -2.60231,-0.879655 -4.8558,-2.19772 -6.76172,-3.957031 -1.97922,-1.795963 -3.5376,-4.087472 -4.67383,-6.873047 -1.13622,-2.822228 -1.70312,-6.121297 -1.70312,-9.896484 h 45.24609 v -5.607422 c 0,-8.906511 -2.25348,-15.779083 -6.76172,-20.617188 -4.47158,-4.838104 -10.84939,-7.257812 -19.13281,-7.257812 z m 72.51758,0 c -3.62858,0 -7.16601,0.751161 -10.61133,2.253906 -3.44532,1.502745 -6.78045,3.59196 -10.00586,6.267578 v -6.816406 h -10.33594 v 61.410158 h 10.33594 V 51.69336 c 2.82223,-2.162487 5.77277,-3.939244 8.85156,-5.332032 3.0788,-1.392787 6.02934,-2.089843 8.85157,-2.089843 2.74892,0 4.98437,0.384598 6.70703,1.154297 1.72266,0.733046 3.04268,1.868806 3.95898,3.408203 0.87966,1.392787 1.48459,3.335768 1.81446,5.828125 0.32987,2.455704 0.49414,5.095741 0.49414,7.917968 v 34.964846 h 10.33593 V 57.685547 c 0,-7.513723 -1.74068,-13.266617 -5.22265,-17.261719 -3.48197,-3.995101 -8.53976,-5.99414 -15.17383,-5.99414 z m 195.72266,0 c -8.94317,0 -16.16231,2.950541 -21.66016,8.851562 -5.46119,5.901022 -8.19336,13.873284 -8.19336,23.916016 0,10.152689 2.86037,17.996751 8.57813,23.53125 5.71776,5.497848 13.67003,8.246098 23.85937,8.246098 3.9951,0 7.80697,-0.49477 11.43555,-1.48438 3.62858,-0.98961 7.18404,-2.217501 10.66601,-3.683593 V 82.53711 h -0.54883 c -1.79596,1.612701 -4.82059,3.261259 -9.07226,4.947265 -4.21502,1.649354 -8.41148,2.47461 -12.58984,2.47461 -3.1521,0 -6.04854,-0.440657 -8.6875,-1.320313 -2.60232,-0.879655 -4.8558,-2.19772 -6.76172,-3.957031 -1.97923,-1.795963 -3.53761,-4.087472 -4.67383,-6.873047 -1.13622,-2.822228 -1.70313,-6.121297 -1.70313,-9.896484 h 45.2461 v -5.607422 c 0,-8.906511 -2.25349,-15.779083 -6.76172,-20.617188 -4.47158,-4.838104 -10.84939,-7.257812 -19.13281,-7.257812 z m -129.69336,0.27539 c -9.05312,0 -16.34832,2.858412 -21.88282,8.576172 -5.49784,5.71776 -8.24609,13.597893 -8.24609,23.640625 0,5.387889 0.73313,10.099106 2.19922,14.13086 1.46609,4.031753 3.53727,7.366893 6.21289,10.005859 2.63897,2.638966 5.80984,4.61802 9.51172,5.9375 3.70188,1.28283 7.77015,1.92383 12.20508,1.92383 3.48197,0 6.76105,-0.45869 9.83984,-1.375 3.11545,-0.91631 6.39648,-2.198304 9.8418,-3.847658 v -11.38086 h -0.54883 c -0.7697,0.62309 -1.81528,1.374251 -3.13477,2.253907 -1.31948,0.843003 -2.72967,1.650223 -4.23242,2.419922 -1.72266,0.879655 -3.66564,1.594746 -5.82812,2.144531 -2.16249,0.549784 -4.28777,0.824219 -6.37696,0.824219 -6.01097,0 -10.68417,-1.979051 -14.01953,-5.9375 -3.29871,-3.995102 -4.94922,-9.695844 -4.94922,-17.09961 0,-7.62368 1.68659,-13.396562 5.0586,-17.318359 3.40866,-3.958449 8.04578,-5.9375 13.91015,-5.9375 3.18875,0 6.4498,0.660986 9.78516,1.980469 3.37201,1.319483 6.63501,3.206404 9.78711,5.662109 h 0.54883 V 39.81836 c -2.82223,-1.42944 -5.93704,-2.639294 -9.34571,-3.628907 -3.37201,-0.989612 -6.81731,-1.484375 -10.33593,-1.484375 z m 171.25781,1.429688 v 61.410158 h 10.33594 V 53.947266 c 2.74892,-2.235791 5.60733,-4.050572 8.57617,-5.44336 2.96884,-1.429439 6.04758,-2.142578 9.23633,-2.142578 1.97922,0 3.68384,0.09018 5.11328,0.273438 1.46609,0.146609 2.96841,0.403008 4.50781,0.769531 H 594 V 36.794922 c -1.6127,-0.256566 -2.82255,-0.422789 -3.6289,-0.496094 -0.80636,-0.109957 -2.10834,-0.164062 -3.9043,-0.164062 -3.26206,0 -6.469,0.697056 -9.62109,2.089844 -3.11545,1.356135 -6.72502,3.683714 -10.83008,6.982422 v -9.072266 z m -310.35352,6.816406 c 5.49785,0 9.58415,1.484288 12.25977,4.453125 2.71227,2.968837 4.08639,7.167256 4.12305,12.591797 h -35.18555 c 0.43983,-4.838105 2.29068,-8.888335 5.55273,-12.150391 3.29871,-3.262055 7.71551,-4.894531 13.25,-4.894531 z m 268.24024,0 c 5.49784,0 9.58415,1.484288 12.25976,4.453125 2.71227,2.968837 4.0864,7.167256 4.12305,12.591797 h -35.18555 c 0.43983,-4.838105 2.29068,-8.888335 5.55274,-12.150391 3.29871,-3.262055 7.7155,-4.894531 13.25,-4.894531 z M 154.88672,57.796875 h 17.09766 c 3.59192,0 6.63459,0.146235 9.12695,0.439453 2.52901,0.256567 4.67233,0.843458 6.43164,1.759766 2.60231,1.356135 4.39906,3.004693 5.38867,4.947266 0.98961,1.942572 1.48438,4.56262 1.48438,7.861328 0,2.895532 -0.47673,5.261134 -1.42969,7.09375 -0.95296,1.832615 -2.45528,3.463138 -4.50781,4.892578 -1.94257,1.319483 -4.43638,2.234914 -7.47852,2.748047 -3.04214,0.47648 -6.94418,0.714843 -11.70898,0.714843 h -14.4043 z" />
</svg>
